<svg width="49" height="52" viewBox="0 0 49 52" fill="none" xmlns="http://www.w3.org/2000/svg">
<path d="M24.5 6.5C13.5056 6.5 4.59375 14.0075 4.59375 23.2483C4.59375 29.0875 8.16667 34.2225 13.5669 37.2125L11.7702 44.8608C11.7471 44.9563 11.7513 45.0569 11.7821 45.1499C11.8129 45.2429 11.869 45.3241 11.9433 45.3832C12.0176 45.4424 12.1068 45.4768 12.1996 45.4821C12.2923 45.4875 12.3845 45.4636 12.4644 45.4133L21.4375 39.7583C22.4531 39.8984 23.4759 39.9708 24.5 39.975C35.4944 39.975 44.4063 32.4892 44.4063 23.2483C44.4063 14.0075 35.4944 6.5 24.5 6.5Z" stroke="black" stroke-linecap="round" stroke-linejoin="round"/>
<path d="M24.4081 26.1842C25.9359 26.1842 27.1745 24.8697 27.1745 23.2483C27.1745 21.6269 25.9359 20.3125 24.4081 20.3125C22.8802 20.3125 21.6416 21.6269 21.6416 23.2483C21.6416 24.8697 22.8802 26.1842 24.4081 26.1842Z" stroke="black" stroke-linecap="round" stroke-linejoin="round"/>
<path d="M34.3509 26.1842C35.8788 26.1842 37.1174 24.8697 37.1174 23.2483C37.1174 21.6269 35.8788 20.3125 34.3509 20.3125C32.8231 20.3125 31.5845 21.6269 31.5845 23.2483C31.5845 24.8697 32.8231 26.1842 34.3509 26.1842Z" stroke="black" stroke-linecap="round" stroke-linejoin="round"/>
<path d="M14.4754 26.1842C16.0033 26.1842 17.2419 24.8697 17.2419 23.2483C17.2419 21.6269 16.0033 20.3125 14.4754 20.3125C12.9476 20.3125 11.709 21.6269 11.709 23.2483C11.709 24.8697 12.9476 26.1842 14.4754 26.1842Z" stroke="black" stroke-linecap="round" stroke-linejoin="round"/>
</svg>
